<?xml version="1.0" encoding="utf-8"?>
<!-- Generator: Adobe Illustrator 17.1.0, SVG Export Plug-In . SVG Version: 6.00 Build 0)  -->
<!DOCTYPE svg PUBLIC "-//W3C//DTD SVG 1.1//EN" "http://www.w3.org/Graphics/SVG/1.1/DTD/svg11.dtd">
<svg version="1.1" id="Ebene_1" xmlns="http://www.w3.org/2000/svg" xmlns:xlink="http://www.w3.org/1999/xlink" x="0px" y="0px"
	 viewBox="11 0 163 40" enable-background="new 11 0 163 40" xml:space="preserve">
<path fill="#008435" d="M28.9,12.2c0.2,0,0.2,0,0.4,0c0.1,0.1,0.2,0.1,0.2,0.2c0,0,0,0,0.1,0s0.1,0,0.2,0.1c0.1,0.1,0.1,0.2,0.2,0.2
	c0.1,0,0.1,0,0.1,0.1c0.1,0,0.1,0.1,0.1,0.1s0.1,0.2,0,0.2c-0.1,0.2-0.2,0.2-0.2,0.4c-0.1,0.1-0.2,0.2-0.2,0.4c0,0,0,0,0,0.1
	c-0.1,0-0.1,0.2-0.2,0.2c0,0.1-0.1,0.2-0.1,0.3c-0.1,0.1,0,0.2-0.1,0.2c-0.1,0.2-0.1,0.4,0.1,0.6c0.1,0.1,0.1,0.2,0.2,0.3
	c0,0.1,0.2,0.2,0.2,0.2c0,0.1,0.2,0.2,0.2,0.2l0.2,0.1l0,0c0.1,0,0.2,0.1,0.2,0.2c0.1,0.1,0.2,0.1,0.4,0.2c0.1,0.1,0.1,0.2,0.1,0.2
	c0.1,0.1,0.1,0.2,0.2,0.2c0,0.2-0.3,0.4-0.5,0.5c-0.2,0.1-0.3,0.2-0.4,0.3l-0.1,0.1c-0.2,0.1-0.3,0.2-0.5,0.3
	c-0.1,0.1-0.2,0.1-0.3,0.2c-0.1,0-0.1-0.1-0.2-0.1c-0.2,0.1-0.2,0.2-0.2,0.3c0,0.1-0.1,0.1-0.1,0.1c-0.1,0-0.1,0-0.1,0.1
	c-0.1,0-0.2,0-0.2,0.1C28.4,19,28.2,19,28.1,19c0,0.1-0.1,0-0.2,0s-0.2,0.1-0.2,0.1c-0.1,0.1-0.2,0.1-0.2,0.1
	c-0.1,0.1-0.2,0.2-0.2,0.2c0,0.1-0.2,0.1-0.2,0.2c-0.1,0.1-0.2,0.1-0.3,0.2c-0.1,0-0.2,0.1-0.2,0.1c-0.1,0.1-0.2,0.1-0.2,0.2
	s-0.1,0.2-0.2,0.2c-0.2,0-0.2,0.2-0.3,0.2c-0.1,0.1-0.2,0.1-0.2,0.2c-0.1,0-0.1,0.1-0.2,0.1c-0.3,0.2-0.6,0.3-0.7,0.6
	c-0.1,0.1-0.1,0.1-0.2,0.2c-0.1,0-0.1,0.1-0.1,0.1c-0.1,0.1-0.2,0.2-0.2,0.2c-0.1,0.1-0.2,0.1-0.2,0.2c-0.1,0.1-0.2,0.2-0.2,0.2l0,0
	c0,0.1-0.1,0.1-0.1,0.1c-0.1,0-0.1,0.1-0.2,0.1c-0.1,0-0.2,0.1-0.2,0.2c-0.1,0.1-0.2,0.2-0.2,0.2c-0.1,0.1-0.2,0.2-0.2,0.2
	c-0.2,0.1-0.3,0.2-0.5,0.3c0,0.1-0.2,0.2-0.2,0.2s-0.2,0-0.2,0.1c-0.1,0-0.2,0-0.2,0.1c-0.2,0-0.2,0.2-0.4,0.2
	c-0.2,0.1-0.3-0.1-0.5-0.2c0-0.1-0.1-0.2-0.1-0.2c-0.1-0.2-0.1-0.4,0-0.6c-0.1-0.1,0.1-0.2,0-0.3c0-0.1,0-0.2,0-0.2
	c-0.1-0.1,0-0.2-0.1-0.2c-0.1-0.1,0-0.2,0-0.2c-0.1-0.1,0.1-0.2-0.1-0.3c-0.1-0.1-0.1-0.2-0.2-0.2c0-0.1-0.1-0.1-0.1-0.2
	c-0.1-0.1-0.1-0.2-0.1-0.3c-0.1-0.2,0-0.3-0.1-0.4c0-0.1-0.1-0.1,0-0.2c-0.1-0.2-0.2-0.5-0.2-0.7C20,19,20,19,20,18.8
	c-0.1-0.2-0.1-0.4-0.1-0.6c-0.1-0.1-0.2-0.2-0.2-0.4c-0.1-0.1,0-0.2-0.1-0.2c0-0.2-0.1-0.3-0.2-0.4c0-0.1-0.1-0.1-0.1-0.1
	c-0.1-0.2-0.2-0.3-0.2-0.5c-0.1-0.2-0.2-0.3-0.2-0.6c-0.2-0.2-0.1-0.5-0.2-0.6c-0.1-0.2,0-0.4,0-0.6c0-0.2,0-0.4-0.1-0.6
	c-0.1-0.1,0-0.2-0.1-0.2c0-0.1-0.1-0.2-0.2-0.3c-0.1-0.1,0-0.2-0.1-0.2c-0.1-0.2,0-0.2,0.1-0.4c0-0.1,0-0.2,0-0.2s0.1-0.1,0.1-0.2
	c0.1-0.2,0.2-0.4,0.3-0.6c0-0.1,0.1-0.1,0.1-0.2c0.2-0.3,0.6,0,0.9-0.2c0.1,0,0.1,0,0.2-0.1c0.4-0.1,0.8,0.3,1.2,0.4
	c0.2,0.1,0.4,0.2,0.6,0.2c0.1,0,0.2,0,0.2-0.1c0.2,0,0.4,0,0.7,0c0.1,0,0.2-0.1,0.3,0l0,0c0.3,0,0.7,0.2,1.1,0c0.1,0,0.2,0,0.2,0
	c0.3,0,0.6-0.2,1-0.2c0.1,0,0.2,0,0.2,0c0.2,0.1,0.3,0.2,0.5,0.2s0.3-0.2,0.5-0.1c0.1,0,0.2,0,0.3,0c0.2,0,0.2,0.1,0.3,0.1l0,0
	c0.2,0,0.3-0.1,0.5-0.1c0.2,0,0.4-0.1,0.6-0.1C28.6,12.1,28.7,12.1,28.9,12.2"/>
<path fill="#008435" d="M45.9,17.8c-0.2,0.1-0.2,0-0.4,0H45l0,0c-0.2,0.2-0.5,0.1-0.6,0.2c-0.1,0.1-0.2,0-0.2,0.1
	c-0.2,0-0.3,0-0.4,0.1c-0.2-0.1-0.6,0.1-0.8,0.1l-0.3,0.2c-0.2,0-0.3,0.1-0.4,0.1c-0.2-0.1-0.3,0-0.4,0.1c-0.3,0.1-0.5-0.2-0.7-0.2
	c-0.1-0.1-0.2,0-0.2-0.1c0,0-0.1,0.1-0.1,0c-0.1,0-0.2,0-0.2,0c-0.1-0.1-0.1-0.2-0.2-0.1c-0.1,0-0.1-0.1-0.1-0.1
	c-0.1-0.1-0.2,0-0.3-0.1h-0.4l0,0h-0.1c-0.2,0-0.2,0.1-0.4,0c-0.2,0.1-0.4,0.2-0.6,0.2c-0.2,0.1-0.2,0.2-0.4,0.2
	c-0.2,0-0.3,0-0.4,0.1c-0.2,0.1-0.3,0.1-0.4,0.1c-0.1,0-0.2,0.1-0.2,0.1c-0.2,0.2-0.5,0-0.6,0.2c-0.1,0.1-0.2,0.2-0.3,0.2
	c-0.1,0.1-0.2,0-0.2,0.1c-0.1,0-0.2,0-0.2,0s-0.2,0.1-0.2,0c-0.1,0-0.1,0-0.2,0c-0.2-0.1-0.2,0-0.4,0.1c-0.1,0,0,0.1-0.1,0.1
	c-0.2,0.1-0.2,0.3-0.3,0.5c-0.1,0.1,0,0.2-0.1,0.3v0.3c-0.2,0.2,0.2,0.3,0.2,0.6c0.1,0.1,0,0.2,0.1,0.2l0.1,0.2
	c0.1,0.1,0,0.2,0.1,0.3c0.1,0.1,0.2,0.2,0.2,0.3l0.3,0.1l0.1,0.2c0.2,0,0.3,0.1,0.5,0.1l0.1,0.1c0.2,0.1,0.2,0.1,0.4,0.1
	c0.1,0,0.1,0.1,0.2,0.1c0.2,0.1,0.5,0.1,0.7,0.2l0,0c0.1,0,0.2,0.1,0.3,0.1c0.1,0.1,0.2,0.1,0.2,0.2c0.1,0,0.2,0.1,0.2,0.1
	c0.2,0,0.2,0.2,0.4,0.2c0.1,0.1,0.2,0.1,0.3,0.2c0.1,0.1,0.2,0.1,0.2,0.1c0.2,0.1,0.2,0.2,0.3,0.2c0.1,0.1,0.1,0.1,0.2,0.2
	c0.1,0.1,0.2,0.1,0.2,0.2l0,0h0.1c0.1,0.1,0.2,0.1,0.2,0.1c0.2,0.1,0.4,0.1,0.6,0.2l0,0c0.1,0,0.2,0,0.2,0.1
	c0.5,0.2,1.1,0.4,1.5,0.5c0.3,0.1,0.6,0.1,1,0.2c0.2,0.1,0.5,0.2,0.8,0.3c0.2,0,0.2,0.1,0.4,0.1c0.1,0.1,0.2,0,0.2,0.1
	c0,0,0,0,0,0.1c0.2,0.1,0.4,0.2,0.6,0.2c0.1,0,0.1,0.1,0.2,0c0.1,0,0.1,0.1,0.2,0.1c0,0,0,0,0.1,0C45.9,26,46,26,46.1,26l0.3,0.1
	c0.1,0,0.2,0.1,0.3,0.1v-8.5C46.2,17.7,46,17.7,45.9,17.8"/>
<path fill="#008435" d="M26.7,31.5c0.1-0.1,0-0.2,0.1-0.3c0-0.1,0.1-0.2,0.1-0.2c0.1-0.1,0.1-0.2,0.2-0.2c0,0,0-0.1,0.1-0.1
	c0-0.2,0.1-0.2,0.2-0.3v-0.1c0-0.2,0.2-0.2,0.2-0.4l0,0c0.1-0.1,0.1-0.2,0.2-0.2c0.1-0.1,0.2-0.2,0.2-0.3c0-0.1,0.1-0.1,0.1-0.2
	c-0.1-0.2,0.1-0.3,0.2-0.5l0,0c0.1-0.1,0.1-0.2,0.2-0.3c0-0.1,0-0.1,0.1-0.2c0.1-0.2,0.2-0.2,0.2-0.4c0,0,0-0.1,0.1-0.1
	c0.1-0.1,0.1-0.1,0.1-0.2c0.2-0.2,0.2-0.4,0.3-0.6c0.1-0.2,0.2-0.2,0.3-0.4c0.1-0.1,0.1-0.2,0.2-0.2c0-0.1,0.1-0.2,0.2-0.2
	c0.1-0.2,0.3-0.4,0.4-0.7c0.1,0,0-0.1,0.1-0.1c0.1-0.2,0.2-0.3,0.2-0.5c0.1-0.1,0.2-0.1,0.2-0.2c0,0,0.1,0,0.1-0.1
	c0.1-0.1,0.1-0.1,0.1-0.1c0.1,0,0.1-0.1,0.1-0.1l0,0l0,0l0,0c0,0,0.2-0.1,0.2-0.2c0.2-0.1,0.2-0.2,0.2-0.4c0-0.1,0.2-0.2,0.2-0.2
	c0.1-0.1,0.1-0.2,0.2-0.3c0-0.1,0-0.1,0-0.2c0.1-0.2,0.1-0.5,0-0.7c0-0.2-0.2-0.3-0.3-0.4c-0.1-0.1-0.1-0.2-0.2-0.2l0,0
	c0,0,0,0-0.1,0l0,0l0,0l0,0l0,0c-0.1,0,0-0.1-0.1-0.2c0-0.2-0.2-0.2-0.2-0.4c-0.1-0.2-0.2-0.3-0.4-0.4c-0.1,0-0.2-0.1-0.2-0.1
	c-0.2,0-0.2-0.1-0.4-0.1l0,0l0,0c-0.2-0.1-0.2,0-0.4-0.1c-0.1,0-0.2,0-0.2,0h-0.1l0,0c-0.1,0.1-0.2,0-0.2,0.1c-0.1,0-0.2,0-0.2,0.1
	c-0.3,0.1-0.6,0.2-0.8,0.2c-0.1,0-0.2,0.1-0.3,0.1c0,0,0,0.1-0.1,0c-0.3,0.2-0.6,0.2-0.9,0.5c-0.1,0-0.2,0.1-0.2,0.1
	c-0.2,0.1-0.2,0.2-0.4,0.2c-0.1,0-0.1,0.1-0.2,0.1c-0.1,0.1-0.2,0.2-0.2,0.2c-0.2,0.3-0.2,0.2-0.3,0.3c-0.2,0.1-0.3,0.2-0.5,0.2
	c-0.4,0.3-0.9,0.6-1.3,0.9c-0.1,0,0,0.1-0.1,0.1c-0.2,0.2-0.3,0.3-0.5,0.5c-0.2,0.2-0.3,0.2-0.5,0.4c-0.1,0.1-0.2,0.1-0.3,0.1
	c-0.1,0-0.2,0.1-0.2,0.2c-0.2,0.1-0.1,0.2-0.2,0.2c-0.1,0.2-0.2,0.2-0.3,0.4c0,0.1,0.1,0.1,0,0.2c0,0.2,0.1,0.2,0.1,0.4
	c0,0-0.1,0.1,0,0.2c0.1,0.1,0,0.2,0.1,0.2c0,0.2,0.2,0.2,0.2,0.5c0.1,0.2,0.1,0.2,0.2,0.4c0.2,0.3,0.3,0.7,0.6,1.1
	c0.1,0.1,0.1,0.2,0.1,0.3l0.1,0.3c0.2,0.3,0.3,0.6,0.4,0.8c0,0.1,0.1,0.2,0.1,0.3c0.1,0.2,0.1,0.5,0.2,0.8c-0.1,0.1,0,0.1,0,0.2
	c0,0.1,0.1,0.2,0.1,0.3c0,0,0.1,0.1,0,0.1c-0.2,0.4,0,0.8,0.2,1.2c0.1,0.2,0,0.4,0.1,0.6c-0.1,0.2,0.1,0.3,0.1,0.6
	c0.1,0.1,0.3,0,0.4,0.2c0,0,0.1,0,0.1,0.1l0,0l0,0l0,0c0.1,0,0.2,0.1,0.3,0c0.1,0,0.2,0,0.3,0c0.2,0.2,0.3,0.1,0.6,0.1l0.2-0.1
	c0-0.1,0.2-0.1,0.2-0.2c0-0.1,0.2-0.1,0.2-0.2c0.1-0.1,0.1,0,0.1-0.1c0.1-0.1,0.1-0.1,0.2-0.1c0-0.1,0-0.1,0-0.1
	c0.1-0.1,0.1-0.1,0.2-0.2c0.1-0.1,0.1-0.2,0.2-0.2c0-0.1,0.1-0.2,0.1-0.2c0,0,0-0.1,0.1-0.1c0-0.1,0.1-0.2,0.1-0.2l0,0v-0.3
	c0.1-0.2,0.1-0.3,0.2-0.5C26.7,31.7,26.7,31.6,26.7,31.5"/>
<path fill="#008435" d="M27.1,33.9l0.2,0.1c0.2,0,0.6-0.2,0.8-0.2c0.1,0.1,0.2,0.1,0.3,0.1c0.2,0,0.3-0.1,0.5,0c0.2,0,0.3-0.1,0.4,0
	c0.2,0,0.3,0.2,0.4,0.2c0.6,0,1.1-0.3,1.7-0.1c0.6,0,1,0.4,1.5,0.4c0,0,0.1,0,0.1,0.1c0.3,0,0.6,0,0.9,0.2c0.6,0.1,1.1,0.3,1.6,0.4
	c0.2,0.1,0.4,0,0.6,0c0.3-0.1,0.6,0.2,1.1,0.1h0.1c0.4,0,0.9,0,1.3-0.1c0.2,0,0.4,0.2,0.6,0.2c0.2-0.2,0.6,0.1,0.9,0.1l0.3,0.2
	c0.1,0,0.2,0,0.3,0c0.2,0,0.5,0.2,0.7,0.2c0.2,0.1,0.6,0.2,0.7,0.2c0.2,0,0.2,0.1,0.3,0c0.2-0.1,0.2,0,0.4,0
	c0.2,0.1,0.4,0.2,0.6,0.2h0.6c0.5-0.2,0.8,0.3,1.2,0.1c0.4-0.1,0.7-0.2,1-0.2v-4l-0.1-0.1h-0.1c-0.2-0.1-0.2-0.1-0.3-0.1
	c-0.1,0-0.2-0.1-0.2-0.1c-0.2-0.1-0.3-0.1-0.4-0.2c0,0,0,0-0.1,0S45,31.3,45,31.3l0,0c-0.1-0.1-0.2-0.1-0.2-0.2l0,0l0,0
	c-0.1,0-0.1,0-0.1,0c-0.1,0-0.2-0.1-0.2-0.2l0,0l0,0c0,0,0,0-0.1,0l0,0l0,0l0,0l0,0c-0.1,0-0.1-0.1-0.2-0.1c0,0,0,0-0.1,0
	c-0.1-0.1-0.2-0.1-0.2-0.2s-0.2-0.1-0.3-0.2c0,0,0-0.1-0.1-0.1c0,0,0,0-0.1,0c0,0,0-0.1-0.1-0.1h-0.1c0-0.1-0.1-0.1-0.1-0.1l0,0l0,0
	c-0.1,0-0.1-0.1-0.2-0.1c-0.4-0.2-0.7-0.6-1.1-0.9c-0.2-0.2-0.2-0.3-0.4-0.5c-0.1-0.2-0.2-0.2-0.4-0.3c-0.1-0.1-0.2-0.1-0.2-0.2l0,0
	l0,0l0,0c-0.1,0-0.1-0.1-0.2-0.1l0,0c0,0,0-0.1-0.1-0.1l0,0c0,0,0,0-0.1,0l0,0c-0.1,0-0.1-0.1-0.2-0.1c0,0,0,0-0.1,0
	c-0.1-0.1-0.2-0.2-0.2-0.2c0,0,0,0-0.1,0c-0.1-0.1-0.2-0.2-0.3-0.2l0,0l0,0c-0.1,0-0.1,0-0.2,0c-0.1,0-0.1-0.1-0.2-0.1l0,0l0,0
	c-0.3-0.1-0.6-0.2-0.9-0.3c0,0,0,0-0.1,0l0,0l0,0c0,0,0,0,0-0.1l0,0l0,0l0,0c-0.1-0.1-0.2-0.2-0.2-0.2l0,0l0,0l0,0
	c-0.1,0-0.1-0.1-0.1-0.1c-0.1,0-0.1-0.1-0.2-0.2l0,0c-0.2-0.2-0.2-0.3-0.3-0.5c0,0,0-0.1-0.1-0.1c0-0.1,0-0.1-0.1-0.1
	c0-0.1-0.1-0.1-0.1-0.1L37.3,26l0,0c-0.2-0.2-0.3-0.4-0.6-0.6c-0.1-0.1-0.2-0.2-0.2-0.2h-0.1l0,0c0,0,0,0,0-0.1l0,0c0,0,0,0,0-0.1
	c0,0,0,0,0,0.1h-0.1c-0.1,0-0.2-0.1-0.2-0.2l0,0l0,0l0,0c0,0,0,0-0.1,0l0,0l0,0l-0.2-0.1c0,0-0.1,0-0.1-0.1c-0.1,0-0.1,0-0.2-0.1
	c-0.1,0-0.1-0.1-0.2-0.1c-0.1,0-0.1-0.1-0.2-0.1c-0.2,0-0.2-0.1-0.3-0.1c0,0-0.1-0.1-0.2-0.1h-0.2c-0.2,0.1-0.2,0.1-0.4,0.2
	c0,0-0.1,0-0.1,0.1C34,24.9,34,24.9,34,24.9h-0.1l-0.1,0.1h-0.1c-0.1,0.1-0.2,0.2-0.2,0.2c-0.1,0-0.1,0.1-0.2,0.2
	c-0.1,0.2-0.3,0.3-0.4,0.5c-0.1,0.2-0.2,0.2-0.3,0.3c-0.1,0-0.1,0.1-0.1,0.1c0,0.1-0.1,0.1-0.1,0.1c-0.2,0.1-0.3,0.2-0.4,0.4
	c-0.2,0.2-0.3,0.4-0.4,0.6c0,0,0,0.1-0.1,0.1c-0.3,0.4-0.6,0.9-0.9,1.3L30.5,29c0,0,0,0.1-0.1,0.1c0,0.1-0.1,0.2-0.2,0.2
	c0,0.1-0.1,0.2-0.2,0.2c0,0.2-0.1,0.2-0.2,0.3c-0.1,0.3-0.3,0.6-0.4,0.9c-0.1,0.2-0.2,0.2-0.2,0.4c-0.1,0.2-0.1,0.3-0.2,0.4
	c-0.2,0.2-0.2,0.3-0.3,0.5c0,0.1-0.1,0.1-0.1,0.2c-0.2,0.2-0.2,0.3-0.4,0.5c0,0.1-0.1,0.2-0.1,0.2C28.2,32.9,28.1,33,28,33
	c0,0.1-0.1,0.1-0.1,0.1c-0.2,0.4-0.4,0.6-0.6,1.1"/>
<path fill="#008435" d="M46.3,10.8V4.1C46.2,4.1,46.1,4,46,4c-0.2,0-0.3,0.1-0.5,0.2c-0.2,0-0.2,0.1-0.3,0.1c-0.1,0-0.2,0.1-0.2,0
	c-0.2,0-0.3,0-0.4,0.1c-0.1,0-0.1,0.1-0.2,0.1c-0.1,0-0.2,0-0.2,0.1c-0.2,0-0.2,0.2-0.2,0.2c-0.2,0.1-0.5,0.2-0.6,0.4
	c-0.2,0.1-0.3,0.2-0.5,0.4C42.6,5.7,42.2,5.8,42,6c-0.2,0.1-0.2,0.2-0.4,0.2c-0.1,0-0.1,0.1-0.2,0.1c-0.1,0.1-0.2,0.1-0.2,0.2
	c-0.2,0.1-0.3,0.1-0.4,0.2c-0.2,0.2-0.4,0.2-0.6,0.3c-0.2,0.2-0.4,0.2-0.6,0.3c-0.1,0-0.2,0.1-0.3,0.2c-0.2,0.1-0.3,0.2-0.4,0.3
	c-0.2,0-0.3,0.2-0.5,0.3c-0.2,0.1-0.2,0.2-0.4,0.2c-0.1,0-0.2,0.1-0.2,0.1c-0.1,0.2-0.2,0.2-0.3,0.2c-0.1,0-0.1,0.1-0.2,0.1
	c-0.1,0-0.2,0.1-0.3,0.2c-0.2,0.1-0.3,0.2-0.6,0.2c-0.1,0-0.2,0.1-0.3,0c-0.1,0.1-0.2,0-0.4,0.1c-0.1,0.1-0.2,0.1-0.2,0.2
	c-0.2,0.1-0.2,0.2-0.4,0.2c-0.3,0.1-0.6,0.2-1,0.2c-0.2,0-0.2,0-0.3,0c-0.1,0-0.2,0-0.2,0l0,0c-0.2,0-0.2,0.2-0.3,0.2
	c-0.2,0.1-0.5,0.3-0.6,0.4c-0.2,0.2-0.4,0.1-0.6,0.2c-0.2,0.1-0.5,0.2-0.6,0.2c-0.1,0-0.2,0.1-0.3,0.1S31,11.1,31,11.1
	c-0.1,0-0.1,0-0.1,0c-0.1,0.1-0.2,0.1-0.2,0.2c-0.2,0.1-0.2,0-0.2,0.2c-0.1,0.1,0,0.2-0.1,0.2c0.2,0.2,0.2,0.3,0.2,0.4
	c0,0.1,0.1,0.1,0.1,0.1c0.2,0,0.2,0.2,0.3,0.2c0.1,0.1,0.2,0.1,0.2,0.2c0.1,0.1,0.1,0.2,0.2,0.2c0.2,0,0.2,0.1,0.3,0.1
	c0,0,0.1,0,0.2,0.1c0.1,0,0.2,0.1,0.2,0c0.1,0.1,0.2,0.1,0.2,0.2c0.1,0,0.1,0.1,0.2,0.2c0.1,0,0.1,0.1,0.2,0.1
	c0.2,0.2,0.2,0.2,0.2,0.3c0,0.1,0.1,0.1,0.1,0.2c0,0.1,0.1,0.1,0.1,0.2s0.1,0.2,0.1,0.2c0,0.1,0,0.2,0,0.2c0.1,0.1-0.1,0.2,0,0.2
	c0,0.1,0,0,0,0.1c0.1,0.2,0,0.3,0.1,0.4l-0.1,0.2c-0.1,0.1-0.1,0.2-0.2,0.2c0.1,0.3-0.2,0.4-0.2,0.6c0,0.2-0.1,0.2,0,0.3
	c0.2,0,0.1,0.2,0.2,0.2c0.2,0.1,0.6,0.3,0.9,0.3c0.1-0.1,0.1,0,0.2,0c0.1,0.1,0.2,0,0.2,0l0,0c0.1,0,0.2-0.1,0.4,0
	c0.2,0.1,0.3,0,0.4,0h0.1c0.2-0.1,0.3-0.2,0.4-0.2c0.1,0,0.1-0.1,0.2-0.1s0.2-0.1,0.3-0.1c0.1-0.1,0.2-0.2,0.2-0.1
	c0.1-0.1,0.2,0,0.2-0.1c0.3-0.2,0.6-0.6,1-0.6c0.3-0.2,0.6-0.2,1-0.4h0.1c0.2-0.1,0.3-0.2,0.6-0.2c0.3-0.2,0.6-0.4,1-0.5
	c0.2,0,0.2-0.1,0.3-0.2c0.2-0.2,0.5-0.2,0.6-0.2h0.1c0.2-0.1,0.6-0.2,0.7-0.5c0.2-0.1,0.2-0.2,0.4-0.2c0.1-0.2,0.3-0.2,0.5-0.3
	l0.2-0.2c0.1,0,0.2-0.1,0.2-0.2c0.2-0.1,0.2-0.2,0.4-0.2c0.1,0,0.2-0.2,0.3-0.2c0.1-0.1,0.2-0.1,0.2-0.2c0.1-0.1,0.2-0.1,0.2-0.2
	c0.2,0,0.2-0.2,0.3-0.2L45,12c0.2-0.2,0.6-0.2,0.7-0.4C46,11.1,46.1,10.9,46.3,10.8"/>
<path fill="#1D1D1B" d="M87.9,27.5c-0.6,0-1.2,0.5-1.8,1.5l0,0v-1.5H85v6.2h1.2v-3.2c0-1.1,0.6-1.9,1.5-1.9c0.2,0,0.6,0.2,1.1,0.5
	l0.6-1.1C88.8,27.6,88.4,27.5,87.9,27.5"/>
<path fill="#1D1D1B" d="M60.8,30c0,2.3-1.4,3.9-4.2,3.9c-2,0-4-1.1-4-3.7v-5.9H54v5.6c0,1.1,0.2,1.5,0.6,1.9c0.6,0.6,1.2,0.8,2,0.8
	c1.1,0,1.8-0.3,2.3-0.7c0.5-0.5,0.6-1.2,0.6-2.1v-5.5h1.4V30z"/>
<path fill="#1D1D1B" d="M63.6,28.3L63.6,28.3c0.5-0.6,1.2-1,1.9-1c1.2,0,2.1,0.8,2.1,2.5v3.9h-1.2v-3.9c0-0.9-0.5-1.5-1.2-1.5
	c-0.6,0-1,0.2-1.5,0.9v4.5h-1.2v-6.2h1.2C63.6,27.5,63.6,28.3,63.6,28.3z"/>
<path fill="#1D1D1B" d="M70.5,33.8h-1.2v-6.2h1.2V33.8z M69.9,26.4c-0.4,0-0.7-0.3-0.7-0.7c0-0.4,0.3-0.7,0.7-0.7
	c0.4,0,0.7,0.3,0.7,0.7C70.6,26.1,70.3,26.4,69.9,26.4"/>
<polygon fill="#1D1D1B" points="71.4,27.5 72.7,27.5 74.4,31.3 76,27.5 77.3,27.5 74.6,33.9 74.2,33.9 "/>
<path fill="#1D1D1B" d="M78.9,30c0.2-1,0.7-1.5,1.7-1.5c0.9,0,1.5,0.6,1.5,1.5H78.9z M83.2,32c-0.7,0.5-1.5,0.7-2.2,0.7
	c-1.2,0-1.9-0.6-2.1-1.9h4.4c0-2.3-1.1-3.5-2.8-3.5s-2.9,1.3-2.9,3.2c0,1.7,1.1,3.3,3.1,3.3c1.1,0,1.8-0.2,2.5-0.7
	C83.2,33.1,83.2,32,83.2,32z"/>
<path fill="#1D1D1B" d="M93.5,29.2c-0.7-0.5-1.4-0.6-1.8-0.6c-0.5,0-0.8,0.2-0.8,0.6c0,0.2,0.4,0.6,1.5,1.3c1.1,0.6,1.4,1.1,1.4,1.8
	c0,1.1-0.9,1.9-2,1.9c-0.7,0-1.4-0.2-2.2-0.6v-1.4c0.8,0.6,1.5,0.8,2,0.8s0.9-0.2,0.9-0.7c0-0.9-2.9-1.3-2.9-3
	c0-1.1,0.8-1.7,2.1-1.7c0.6,0,1.2,0.2,1.9,0.5L93.5,29.2L93.5,29.2z"/>
<path fill="#1D1D1B" d="M96.4,33.8h-1.2v-6.2h1.2V33.8z M95.7,26.4c-0.4,0-0.7-0.3-0.7-0.7c0-0.4,0.3-0.7,0.7-0.7
	c0.4,0,0.7,0.3,0.7,0.7C96.4,26.1,96.1,26.4,95.7,26.4"/>
<path fill="#1D1D1B" d="M99.7,27.5h1.9v1.1h-1.9v3.2c0,0.7,0.6,1,0.9,1c0.5,0,0.9-0.2,1.4-0.5v1.1c-0.4,0.2-1.1,0.4-1.5,0.4
	c-1.4,0-2-0.8-2-1.9v-3.3h-1.1v-0.2l2.3-2.3C99.7,26.2,99.7,27.5,99.7,27.5z"/>
<path fill="#1D1D1B" d="M106,32.6c-0.3,0.3-0.7,0.5-1.1,0.5c-0.5,0-0.9-0.3-0.9-0.9c0-0.7,0.9-1.1,1.9-1.5V32.6z M103.8,25
	c-0.3,0-0.6,0.2-0.6,0.6c0,0.3,0.3,0.6,0.6,0.6s0.6-0.3,0.6-0.6C104.5,25.4,104.1,25,103.8,25 M106.4,25c-0.3,0-0.6,0.2-0.6,0.6
	c0,0.3,0.3,0.6,0.6,0.6s0.6-0.3,0.6-0.6C107.1,25.4,106.7,25,106.4,25 M108.1,32.7c-0.2,0.2-0.6,0.3-0.6,0.3c-0.2,0-0.2-0.1-0.2-0.3
	v-3.2c0-1.5-1-2.1-2.3-2.1c-0.9,0-1.6,0.2-2.1,0.9v1.4c0.6-0.7,1.3-1.1,1.9-1.1c0.7,0,1.1,0.3,1.1,1.1V30l-1.1,0.4
	c-1,0.3-2.1,0.7-2.1,1.9c0,0.8,0.6,1.5,1.5,1.5c0.6,0,1.1-0.2,1.7-0.6c0.1,0.5,0.4,0.6,1,0.6c0.4,0,0.6-0.1,1.2-0.5
	C108.1,33.4,108.1,32.7,108.1,32.7z"/>
<path fill="#1D1D1B" d="M110.6,27.5h1.9v1.1h-1.9v3.2c0,0.7,0.6,1,0.9,1c0.5,0,0.9-0.2,1.4-0.5v1.1c-0.4,0.2-1.1,0.4-1.5,0.4
	c-1.4,0-2-0.8-2-1.9v-3.3h-1.1v-0.2l2.3-2.3C110.6,26.2,110.6,27.5,110.6,27.5z"/>
<path fill="#1D1D1B" d="M122.4,26.4c-0.8-0.7-1.6-1-2.3-1c-0.9,0-1.5,0.5-1.5,1.1c0,1.9,4.1,1.8,4.1,4.9c0,1.5-1.1,2.6-2.7,2.6
	c-1.1,0-1.9-0.2-2.7-0.9v-1.8c0.7,0.9,1.5,1.4,2.5,1.4c1.1,0,1.5-0.6,1.5-1.2c0-1.9-4.1-2.2-4.1-4.8c0-1.5,1.1-2.5,2.9-2.5
	c0.7,0,1.5,0.2,2.1,0.6L122.4,26.4L122.4,26.4z"/>
<path fill="#1D1D1B" d="M125.5,27.5h1.9v1.1h-1.9v3.2c0,0.7,0.6,1,0.9,1c0.5,0,0.9-0.2,1.4-0.5v1.1c-0.4,0.2-1.1,0.4-1.5,0.4
	c-1.4,0-2-0.8-2-1.9v-3.3h-1.1v-0.2l2.3-2.3V27.5z"/>
<path fill="#1D1D1B" d="M130.3,33.1c0,0.5-0.4,0.8-0.8,0.8s-0.8-0.4-0.8-0.8c0-0.5,0.4-0.8,0.8-0.8S130.3,32.6,130.3,33.1"/>
<path fill="#1D1D1B" d="M140.3,33.1c-1.3,0.6-2.3,0.8-3.6,0.8c-2.9,0-5.1-2-5.1-4.9s2.2-4.9,5.1-4.9c1.1,0,1.9,0.2,3.4,0.8v1.4
	c-1.1-0.6-2.3-1-3.4-1c-2.1,0-3.6,1.5-3.6,3.6s1.6,3.6,3.9,3.6c0.7,0,1.4-0.2,2.1-0.4v-1.9h-1.9v-1.2h3.2V33.1z"/>
<path fill="#1D1D1B" d="M144.9,32.6c-0.3,0.3-0.7,0.5-1.1,0.5c-0.5,0-0.9-0.3-0.9-0.9c0-0.7,0.9-1.1,1.9-1.5V32.6L144.9,32.6z
	 M147,32.7c-0.2,0.2-0.6,0.3-0.6,0.3c-0.2,0-0.2-0.1-0.2-0.3v-3.2c0-1.5-1-2.1-2.3-2.1c-0.9,0-1.6,0.2-2.1,0.9v1.4
	c0.6-0.7,1.3-1.1,1.9-1.1c0.7,0,1.1,0.3,1.1,1.1V30l-1.1,0.4c-1,0.3-2.1,0.7-2.1,1.9c0,0.8,0.6,1.5,1.5,1.5c0.6,0,1.1-0.2,1.7-0.6
	c0.1,0.5,0.4,0.6,1,0.6c0.4,0,0.6-0.1,1.2-0.5L147,32.7L147,32.7z"/>
<rect x="148.1" y="24.3" fill="#1D1D1B" width="1.2" height="9.6"/>
<rect x="151" y="24.3" fill="#1D1D1B" width="1.2" height="9.6"/>
<path fill="#1D1D1B" d="M154.7,30c0.2-1,0.7-1.5,1.7-1.5c0.9,0,1.5,0.6,1.5,1.5H154.7z M158.9,32c-0.7,0.5-1.5,0.7-2.2,0.7
	c-1.2,0-1.9-0.6-2.1-1.9h4.4c0-2.3-1.1-3.5-2.8-3.5c-1.7,0-2.9,1.3-2.9,3.2c0,1.7,1.1,3.3,3.1,3.3c1.1,0,1.8-0.2,2.5-0.7V32z"/>
<path fill="#1D1D1B" d="M161.6,28.3L161.6,28.3c0.5-0.6,1.2-1,1.9-1c1.2,0,2.1,0.8,2.1,2.5v3.9h-1.2v-3.9c0-0.9-0.5-1.5-1.2-1.5
	c-0.6,0-1,0.2-1.5,0.9v4.5h-1.2v-6.2h1.2L161.6,28.3L161.6,28.3z"/>
</svg>
